<svg width="240" height="240" viewBox="0 0 240 240" fill="none" xmlns="http://www.w3.org/2000/svg">
<circle cx="120" cy="120" r="120" fill="white"/>
<path d="M121.409 34.1377C121.211 32.9445 118.789 32.9445 118.591 34.1377C115.96 49.9949 109.135 80.1769 93.9999 93C77.1565 107.27 44.2301 116.019 31.8557 118.923C30.7917 119.172 30.7917 120.828 31.8557 121.077C44.2301 123.981 77.1565 132.73 93.9999 147C109.135 159.823 115.96 190.005 118.591 205.862C118.789 207.056 121.211 207.056 121.409 205.862C124.04 190.005 130.864 159.823 146 147C162.843 132.73 195.77 123.981 208.144 121.077C209.208 120.828 209.208 119.172 208.144 118.923C195.77 116.019 162.843 107.27 146 93C130.864 80.1769 124.04 49.9949 121.409 34.1377Z" fill="#404040"/>
<circle cx="175" cy="174" r="15" fill="url(#paint0_linear_115_2)"/>
<defs>
<linearGradient id="paint0_linear_115_2" x1="166.483" y1="162.157" x2="183.989" y2="181.261" gradientUnits="userSpaceOnUse">
<stop stop-color="#0664D8"/>
<stop offset="1" stop-color="#9CC7FC"/>
</linearGradient>
</defs>
</svg>
